<svg width="863.6250488281249px" height="290.002490234375px" xmlns="http://www.w3.org/2000/svg" viewBox="-181.81252441406247 -70.0012451171875 863.6250488281249 290.002490234375" style="background: none;" preserveAspectRatio="xMidYMid"><defs><filter id="editing-lego" x="-100%" y="-100%" width="300%" height="300%"><feFlood flood-color="#a24124" result="f1"></feFlood><feFlood flood-color="#e37e44" result="f2"></feFlood><feMorphology operator="dilate" radius="3" in="SourceAlpha"></feMorphology><feConvolveMatrix order="5,5" divisor="1" result="cm1" kernelMatrix="0 1 1 1 0  1 0 0 0 1  1 0 0 0 1  1 0 0 0 1  0 1 1 1 0"></feConvolveMatrix><feComposite operator="in" in="f1" in2="cm1" result="c1"></feComposite><feMorphology operator="dilate" radius="3"></feMorphology><feConvolveMatrix order="5,5" divisor="1" result="cm2" kernelMatrix="0 1 1 1 0  1 0 0 0 1  1 0 0 0 1  1 0 0 0 1  0 1 1 1 0"></feConvolveMatrix><feComposite operator="in" in="f2" in2="cm2" result="c2"></feComposite><feMerge><feMergeNode in="c2"></feMergeNode><feMergeNode in="c1"></feMergeNode><feMergeNode in="SourceGraphic"></feMergeNode></feMerge></filter></defs><g filter="url(#editing-lego)"><g transform="translate(-60.59000611305237, 132.4199981689453)"><path d="M84.82-112.81L109.33-23.78L115.13-23.78L115.13 0L58.29 0L58.29-23.78L66.99-23.78L64.67-35.38L44.95-35.38L42.63-23.78L51.33-23.78L51.33 0L1.74 0L1.74-23.78L7.54-23.78L32.04-112.81L84.82-112.81ZM54.08-79.60L48.14-50.75L61.48-50.75L55.53-79.60L54.08-79.60ZM148.04 2.03L148.04 2.03Q133.25 2.03 125.79-8.99L125.79-8.99L125.79-8.99Q118.32-20.01 118.32-40.31L118.32-40.31L118.32-40.31Q118.32-60.61 125.79-71.63L125.79-71.63L125.79-71.63Q133.25-82.65 148.04-82.65L148.04-82.65L148.04-82.65Q155.44-82.65 161.17-79.02L161.17-79.02L161.17-79.02Q166.89-75.40 170.52-70.76L170.52-70.76L170.52-89.03L161.96-89.03L161.96-112.81L203.87-112.81L203.87-23.78L210.25-23.78L210.25 0L170.52 0L170.52-9.86L170.52-9.86Q166.89-5.22 161.17-1.59L161.17-1.59L161.17-1.59Q155.44 2.03 148.04 2.03L148.04 2.03ZM162.11-23.78L162.11-23.78Q166.31-23.78 168.42-26.03L168.42-26.03L168.42-26.03Q170.52-28.27 170.52-33.06L170.52-33.06L170.52-47.56L170.52-47.56Q170.52-52.34 168.42-54.59L168.42-54.59L168.42-54.59Q166.31-56.84 162.11-56.84L162.11-56.84L162.11-56.84Q157.90-56.84 155.80-54.59L155.80-54.59L155.80-54.59Q153.70-52.34 153.70-47.56L153.70-47.56L153.70-33.06L153.70-33.06Q153.70-28.27 155.80-26.03L155.80-26.03L155.80-26.03Q157.90-23.78 162.11-23.78L162.11-23.78ZM354.96-23.78L361.34-23.78L361.34 0L315.52 0L315.52-23.78L321.61-23.78L321.61-47.56L321.61-47.56Q321.61-52.34 319.58-54.59L319.58-54.59L319.58-54.59Q317.55-56.84 313.49-56.84L313.49-56.84L313.49-56.84Q304.79-56.84 304.79-47.56L304.79-47.56L304.79-23.78L310.88-23.78L310.88 0L265.35 0L265.35-23.78L271.44-23.78L271.44-47.56L271.44-47.56Q271.44-52.34 269.41-54.59L269.41-54.59L269.41-54.59Q267.38-56.84 263.32-56.84L263.32-56.84L263.32-56.84Q254.62-56.84 254.62-47.56L254.62-47.56L254.62-23.78L260.71-23.78L260.71 0L214.89 0L214.89-23.78L221.27-23.78L221.27-56.84L214.89-56.84L214.89-80.62L254.62-80.62L254.62-69.31L254.62-69.31Q265.06-82.65 280.72-82.65L280.72-82.65L280.72-82.65Q289.56-82.65 295.15-78.52L295.15-78.52L295.15-78.52Q300.73-74.38 303.05-66.84L303.05-66.84L303.05-66.84Q308.27-74.38 315.01-78.44L315.01-78.44L315.01-78.44Q321.75-82.50 330.89-82.50L330.89-82.50L330.89-82.50Q342.92-82.50 348.94-74.96L348.94-74.96L348.94-74.96Q354.96-67.42 354.96-54.23L354.96-54.23L354.96-23.78ZM402.52-88.59L372.94-88.59L372.94-112.81L402.52-112.81L402.52-88.59ZM412.09 0L365.98 0L365.98-23.78L372.36-23.78L372.36-56.84L365.98-56.84L365.98-80.62L405.71-80.62L405.71-23.78L412.09-23.78L412.09 0ZM506.05-23.78L512.43-23.78L512.43 0L466.61 0L466.61-23.78L472.70-23.78L472.70-47.56L472.70-47.56Q472.70-52.34 470.67-54.59L470.67-54.59L470.67-54.59Q468.64-56.84 464.58-56.84L464.58-56.84L464.58-56.84Q455.88-56.84 455.88-47.56L455.88-47.56L455.88-23.78L461.97-23.78L461.97 0L416.15 0L416.15-23.78L422.53-23.78L422.53-56.84L416.15-56.84L416.15-80.62L455.88-80.62L455.88-69.31L455.88-69.31Q466.32-82.65 481.98-82.65L481.98-82.65L481.98-82.65Q494.01-82.65 500.03-75.11L500.03-75.11L500.03-75.11Q506.05-67.57 506.05-54.37L506.05-54.37L506.05-23.78ZM517.36 0L517.36-23.78L524.61-23.78L524.61-89.03L517.36-89.03L517.36-112.81L581.01-112.81L581.01-112.81Q599.72-112.81 609.58-104.76L609.58-104.76L609.58-104.76Q619.44-96.71 619.44-78.73L619.44-78.73L619.44-78.73Q619.44-60.75 609.58-52.71L609.58-52.71L609.58-52.71Q599.72-44.66 581.01-44.66L581.01-44.66L565.21-44.66L565.21-23.78L579.13-23.78L579.13 0L517.36 0ZM565.21-65.25L570.14-65.25L570.14-65.25Q578.55-65.25 578.55-74.53L578.55-74.53L578.55-79.75L578.55-79.75Q578.55-84.53 576.45-86.78L576.45-86.78L576.45-86.78Q574.35-89.03 570.14-89.03L570.14-89.03L565.21-89.03L565.21-65.25Z" fill="#fefefe"></path></g></g><style>text {
  font-size: 64px;
  font-family: Arial Black;
  dominant-baseline: central;
  text-anchor: middle;
}</style></svg>